<svg width="15" height="15" viewBox="0 0 15 15" fill="none" xmlns="http://www.w3.org/2000/svg">
<g clip-path="url(#clip0_12_8583)">
<path d="M5.35704 6.96429C6.06744 6.96429 6.74874 6.68208 7.25107 6.17975C7.7534 5.67742 8.03561 4.99612 8.03561 4.28572C8.03561 3.57532 7.7534 2.89401 7.25107 2.39168C6.74874 1.88935 6.06744 1.60715 5.35704 1.60715C4.64664 1.60715 3.96533 1.88935 3.463 2.39168C2.96067 2.89401 2.67847 3.57532 2.67847 4.28572C2.67847 4.99612 2.96067 5.67742 3.463 6.17975C3.96533 6.68208 4.64664 6.96429 5.35704 6.96429Z" stroke="#BBBBBB" stroke-width="1.71429" stroke-linecap="round" stroke-linejoin="round"/>
<path d="M0.535645 14.4643H10.1785V13.8836C10.1716 13.2358 10.0346 12.5961 9.77555 12.0024C9.51649 11.4086 9.14071 10.8731 8.67053 10.4275C8.20036 9.9819 7.64539 9.63539 7.03862 9.40857C6.43185 9.18175 5.78568 9.07924 5.1385 9.10715C3.90666 9.1656 2.74379 9.69282 1.88805 10.5808C1.03231 11.4688 0.548478 12.6504 0.535645 13.8836V14.4643Z" stroke="#BBBBBB" stroke-width="1.71429" stroke-linecap="round" stroke-linejoin="round"/>
<path d="M9.64282 6.96429C10.3532 6.96429 11.0345 6.68208 11.5369 6.17975C12.0392 5.67742 12.3214 4.99612 12.3214 4.28572C12.3214 3.57532 12.0392 2.89401 11.5369 2.39168C11.0345 1.88935 10.3532 1.60715 9.64282 1.60715" stroke="#BBBBBB" stroke-width="1.71429" stroke-linecap="round" stroke-linejoin="round"/>
<path d="M12.3213 14.4643H14.4641V13.8836C14.4527 12.7988 14.0766 11.7495 13.3964 10.9045C12.7161 10.0594 11.7714 9.46788 10.7141 9.22501" stroke="#BBBBBB" stroke-width="1.71429" stroke-linecap="round" stroke-linejoin="round"/>
</g>
<defs>
<clipPath id="clip0_12_8583">
<rect width="15" height="15" fill="white"/>
</clipPath>
</defs>
</svg>
